# xmcd
# 
# Track frame offsets:
#     150
#     17525
#     30880
#     46967
#     68097
#     77895
#     101802
#     115900
#     128432
#     143452
# 
# Disc length: 2318
# 
# Revision: 3
# Processed by: cddbd v1.5.2PL0 Copyright (c) Steve Scherf et al.
# Submitted via: BonkEnc v1.0.8
# 
DISCID=71090c0a
DTITLE=The Free Design - One by One
DYEAR=1972
DGENRE=Sunshine Pop
TTITLE0=One by One
TTITLE1=Felt So Good
TTITLE2=Friendly Man
TTITLE3=Light My Fire
TTITLE4=Like to Love
TTITLE5=You Are My Sunshine
TTITLE6=Go Lean on a River
TTITLE7=Going Back
TTITLE8=Love Me
TTITLE9=Friends (Thank You All)
EXTD=
EXTT0=
EXTT1=
EXTT2=
EXTT3=
EXTT4=
EXTT5=
EXTT6=
EXTT7=
EXTT8=
EXTT9=
PLAYORDER=
